<?xml version="1.0" encoding="UTF-8" standalone="no"?>
<svg
   xmlns:dc="http://purl.org/dc/elements/1.1/"
   xmlns:cc="http://creativecommons.org/ns#"
   xmlns:rdf="http://www.w3.org/1999/02/22-rdf-syntax-ns#"
   xmlns:svg="http://www.w3.org/2000/svg"
   xmlns="http://www.w3.org/2000/svg"
   xmlns:sodipodi="http://sodipodi.sourceforge.net/DTD/sodipodi-0.dtd"
   xmlns:inkscape="http://www.inkscape.org/namespaces/inkscape"
   version="1.1"
   id="Capa_1"
   x="0px"
   y="0px"
   viewBox="0 0 479.619 479.619"
   style="enable-background:new 0 0 479.619 479.619;"
   xml:space="preserve"
   sodipodi:docname="bell.svg"
   inkscape:version="1.0.1 (c497b03c, 2020-09-10)"><metadata
   id="metadata43"><rdf:RDF><cc:Work
       rdf:about=""><dc:format>image/svg+xml</dc:format><dc:type
         rdf:resource="http://purl.org/dc/dcmitype/StillImage" /></cc:Work></rdf:RDF></metadata><defs
   id="defs41" /><sodipodi:namedview
   pagecolor="#ffffff"
   bordercolor="#666666"
   borderopacity="1"
   objecttolerance="10"
   gridtolerance="10"
   guidetolerance="10"
   inkscape:pageopacity="0"
   inkscape:pageshadow="2"
   inkscape:window-width="1440"
   inkscape:window-height="794"
   id="namedview39"
   showgrid="false"
   inkscape:zoom="0.28378035"
   inkscape:cx="1026.038"
   inkscape:cy="947.6343"
   inkscape:window-x="0"
   inkscape:window-y="23"
   inkscape:window-maximized="1"
   inkscape:current-layer="g4"
   inkscape:document-rotation="0" />
<g
   id="g6">
	<g
   id="g4">
		<path
   id="path2"
   d="m 189.60156,10.046875 c -13.64145,0.515741 -27.06579,5.96948 -37.07324,15.278886 -8.59688,7.90423 -14.73831,18.43891 -17.31381,29.834158 -1.72172,7.451139 -1.84038,15.226611 -0.63921,22.767171 0.21772,1.6148 0.43517,3.229638 0.65322,4.844394 -7.8958,4.896903 -15.6344,10.09282 -22.72931,16.109293 -10.40728,8.725503 -19.793968,18.904653 -27.600772,29.896563 -5.684326,8.03391 -10.656865,16.57258 -14.792969,25.50391 -0.320847,0.69886 -0.7492,1.64969 -1.111328,2.44531 -0.308003,0.7254 -0.747963,1.72317 -1.102695,2.55529 -8.621911,20.37746 -12.956675,42.5527 -12.615218,64.67782 0.101659,8.70526 1.007147,17.38459 2.454363,25.96499 4.415187,28.11972 8.885052,56.23177 13.214049,84.36438 1.113802,10.29244 -4.903096,20.91054 -14.29985,25.2533 -3.465914,1.70643 -7.339486,2.17871 -11.07622,2.95586 -12.204671,2.92159 -22.878594,11.58234 -28.248687,22.92676 -2.210921,4.59076 -3.61007,9.58077 -4.024961,14.66293 -0.03445,0.39719 -0.08099,1.20113 -0.103516,1.75391 -0.485707,13.40406 6.334338,26.72801 17.287442,34.40948 7.572055,5.40604 17.011058,8.15237 26.304134,7.52377 4.466681,-0.27349 8.85367,-1.23405 13.27458,-1.8702 16.716627,-2.62626 33.433308,-5.25215 50.149468,-7.88141 2.61013,4.85561 5.22157,9.75771 8.73005,14.04104 1.61598,2.0277 3.50916,4.06587 5.30901,5.76755 3.38347,3.20868 7.16078,6.00274 11.22852,8.2832 0.68156,0.38328 1.63666,0.88568 2.43726,1.29211 12.82989,6.5182 28.14104,8.00604 41.96118,3.95365 12.69424,-3.65082 24.06505,-11.77722 31.51932,-22.69606 4.76741,-6.83971 7.90722,-14.75043 9.41819,-22.93621 0.36848,-1.75853 0.73698,-3.51706 1.10546,-5.2756 66.87918,-10.53297 133.76185,-21.04526 200.63903,-31.59009 1.54722,-0.26213 3.31841,-0.69495 4.67151,-1.10131 10.573,-3.17271 19.7087,-10.79467 24.71174,-20.63617 2.71496,-5.28099 4.25124,-11.15927 4.50311,-17.09039 0.0198,-0.49097 0.0426,-1.3246 0.0344,-1.95389 -0.008,-6.6944 -1.74749,-13.3742 -5.06747,-19.19199 -5.71722,-10.16864 -15.79794,-17.77527 -27.16422,-20.42834 -0.4628,-0.11047 -1.26517,-0.2868 -1.87044,-0.39994 -5.32778,-1.04687 -10.84004,-0.99654 -16.1742,-0.0221 -9.79447,1.30585 -20.09277,-3.8234 -24.93859,-12.43874 -2.34142,-3.95328 -3.17106,-8.55202 -3.742,-13.04764 -4.24694,-27.09317 -8.42714,-54.19291 -12.75895,-81.26672 -1.02972,-5.73521 -2.37601,-11.41169 -3.99629,-17.00847 -0.21189,-0.71658 -0.51881,-1.72383 -0.76719,-2.552 -8.858,-28.72687 -25.67356,-54.95086 -48.12004,-74.95187 -17.54623,-15.697213 -38.46371,-27.609372 -60.93129,-34.650126 -2.87162,-0.924106 -5.77821,-1.743234 -8.67522,-2.560643 -1.89286,-0.795268 -2.73234,-2.918301 -2.82046,-4.848471 -0.71308,-5.026851 -2.02709,-9.970693 -3.93385,-14.677121 -0.35171,-0.867975 -0.83352,-1.976997 -1.28089,-2.919497 -0.8818,-1.884488 -1.9252,-3.803465 -2.95825,-5.48519 -2.20444,-3.592595 -4.83657,-6.916203 -7.76086,-9.948828 -0.41509,-0.414191 -1.06273,-1.071355 -1.58007,-1.564453 -7.86739,-7.538905 -17.88134,-12.80722 -28.56987,-14.950545 -4.52154,-0.919679 -9.15313,-1.2993755 -13.76412,-1.121721 z m 2.52149,15.839844 c 14.4938,-0.03975 28.77629,7.605427 36.71105,19.747159 3.54264,5.137722 7.03633,10.308306 10.55652,15.461825 -8.72075,0.225791 -17.44412,0.113682 -26.16639,0.116354 -3.19979,-0.0105 -6.39043,0.144889 -9.52121,0.380582 -9.32238,0.718443 -18.56924,2.322415 -27.60313,4.728751 -7.7954,1.982968 -15.41562,4.577704 -23.07063,7.032211 -2.9883,0.973185 -5.9766,1.946363 -8.96481,2.919837 2.01609,-6.206225 3.75816,-12.496011 5.69786,-18.725247 1.84793,-6.387728 5.18374,-12.32898 9.68811,-17.22134 6.77399,-7.434735 16.12166,-12.516153 26.09834,-13.928978 2.1766,-0.321082 4.37453,-0.484683 6.57429,-0.511154 z m 22.17578,49.412109 c 10.45034,0.0098 20.90003,1.078046 31.14214,3.147721 12.77783,2.95375 25.17791,7.550822 36.7678,13.694262 17.67008,9.320569 33.48215,22.152679 46.18444,37.576899 16.7949,20.33313 28.21996,45.09428 32.57608,71.11815 1.26883,7.42156 2.32346,14.87779 3.54272,22.30755 3.37806,21.39927 6.68378,42.79618 10.16337,64.17939 2.22332,10.49521 8.99932,19.92142 18.22501,25.394 0.29054,0.17351 0.98625,0.57747 1.44156,0.81961 3.94929,2.14312 8.26301,3.62009 12.70297,4.31906 0.31833,0.0487 1.06081,0.16097 1.54513,0.20864 4.12488,0.50602 8.29985,0.21102 12.38828,-0.45433 9.48917,-1.29145 19.38689,2.83795 25.43144,10.2064 3.76263,4.48523 5.93504,10.27729 5.93374,16.14079 0.10941,8.14875 -3.64946,16.26635 -10.02074,21.36745 -3.92076,3.21638 -8.76456,5.21098 -13.77558,5.90304 -15.77906,2.44657 -31.54977,4.95997 -47.32616,7.42937 -104.3896,16.41749 -208.77957,32.83355 -313.174628,49.21571 -4.140019,0.61907 -8.270474,1.34272 -12.432277,1.78735 -10.163962,0.58735 -20.347517,-5.22843 -25.083214,-14.22851 -3.619791,-6.59299 -4.302886,-14.8198 -1.41218,-21.81023 3.539769,-9.27453 12.23221,-16.4311 22.091069,-17.85761 3.633811,-0.59232 7.23404,-1.49715 10.584522,-3.05103 10.217204,-4.53992 18.341676,-13.60125 21.596747,-24.31448 2.02087,-6.4366 2.292192,-13.37299 0.968989,-19.97793 -4.562941,-29.26031 -9.252441,-58.50138 -13.708361,-87.77797 -4.041782,-30.75047 2.058988,-62.73248 17.127483,-89.84065 13.07917,-23.66866 32.79282,-43.68119 56.43012,-56.855222 8.71678,-4.693647 17.78149,-8.78415 27.23328,-11.762985 13.83055,-4.428609 28.33073,-6.793685 42.85625,-6.884445 z M 221.25,421.62109 c -4.43362,5.88561 -8.75465,11.85283 -13.25164,17.69 -8.36339,10.33108 -21.62259,16.47817 -34.91315,16.17017 -9.05866,-0.12449 -17.99705,-3.21534 -25.31371,-8.53341 -6.57617,-4.77568 -13.24066,-9.43061 -19.85158,-14.15879 32.08694,-5.03513 64.17444,-10.06665 96.26172,-15.09961 -0.97721,1.31055 -1.95443,2.6211 -2.93164,3.93164 z" />
	</g>
</g>
<g
   id="g8">
</g>
<g
   id="g10">
</g>
<g
   id="g12">
</g>
<g
   id="g14">
</g>
<g
   id="g16">
</g>
<g
   id="g18">
</g>
<g
   id="g20">
</g>
<g
   id="g22">
</g>
<g
   id="g24">
</g>
<g
   id="g26">
</g>
<g
   id="g28">
</g>
<g
   id="g30">
</g>
<g
   id="g32">
</g>
<g
   id="g34">
</g>
<g
   id="g36">
</g>
</svg>
