<?xml version="1.0" encoding="UTF-8" standalone="no"?>
<svg
   xmlns:dc="http://purl.org/dc/elements/1.1/"
   xmlns:cc="http://creativecommons.org/ns#"
   xmlns:rdf="http://www.w3.org/1999/02/22-rdf-syntax-ns#"
   xmlns:svg="http://www.w3.org/2000/svg"
   xmlns="http://www.w3.org/2000/svg"
   xmlns:sodipodi="http://sodipodi.sourceforge.net/DTD/sodipodi-0.dtd"
   xmlns:inkscape="http://www.inkscape.org/namespaces/inkscape"
   version="1.1"
   id="Capa_1"
   x="0px"
   y="0px"
   viewBox="0 0 479.619 479.619"
   style="enable-background:new 0 0 479.619 479.619;"
   xml:space="preserve"
   sodipodi:docname="bell.svg"
   inkscape:version="1.0.1 (3bc2e813f5, 2020-09-07)"><metadata
   id="metadata43"><rdf:RDF><cc:Work
       rdf:about=""><dc:format>image/svg+xml</dc:format><dc:type
         rdf:resource="http://purl.org/dc/dcmitype/StillImage" /></cc:Work></rdf:RDF></metadata><defs
   id="defs41" /><sodipodi:namedview
   pagecolor="#ffffff"
   bordercolor="#666666"
   borderopacity="1"
   objecttolerance="10"
   gridtolerance="10"
   guidetolerance="10"
   inkscape:pageopacity="0"
   inkscape:pageshadow="2"
   inkscape:window-width="1920"
   inkscape:window-height="1017"
   id="namedview39"
   showgrid="false"
   inkscape:zoom="1.7722401"
   inkscape:cx="239.80949"
   inkscape:cy="239.80949"
   inkscape:window-x="-8"
   inkscape:window-y="-8"
   inkscape:window-maximized="1"
   inkscape:current-layer="g6" />
<g
   id="g6">
	<g
   id="g4">
		<path
   id="path2"
   d="m 189.57812,2.0410156 c -2.82675,0.1028385 -5.64561,0.3834836 -8.4375,0.8378906 -0.37262,0.06485 -1.17205,0.2033401 -1.70738,0.3030326 -13.44656,2.5212436 -26.03229,9.3740442 -35.43335,19.3149942 -10.58656,11.061862 -17.14388,25.900223 -18.09379,41.19017 -0.16226,2.38616 -0.17838,4.780935 -0.0819,7.170319 0.0202,0.372657 0.0625,1.169312 0.0979,1.705141 0.13801,2.076052 0.41163,4.138691 0.69308,6.199156 -10.69052,6.704296 -20.67779,14.541366 -29.62574,23.444021 -18.701061,18.5192 -32.92379,41.50807 -41.191732,66.49226 -1.645561,4.95289 -3.046573,9.98585 -4.235258,15.06762 -0.148883,0.69257 -0.374499,1.69265 -0.552835,2.50325 -4.436518,20.52168 -4.938221,41.87157 -1.549451,62.58894 4.481131,28.52408 8.991136,57.04406 13.454226,85.5707 0.865071,6.12345 -1.901344,12.56383 -6.90243,16.19034 -2.565305,1.94039 -5.691012,3.00723 -8.865163,3.38301 -3.265052,0.55698 -6.472937,1.4413 -9.566769,2.62314 -0.348672,0.13593 -1.059341,0.41166 -1.53901,0.62221 -0.848642,0.35346 -1.682084,0.742 -2.511771,1.13756 -0.342574,0.17983 -1.041131,0.5161 -1.511227,0.77395 -11.571824,6.08537 -20.573132,16.84367 -24.5081373,29.31295 -2.0843393,6.56679 -2.9161422,13.58281 -1.977999,20.43057 1.1164811,8.99617 4.8239953,17.64134 10.5325193,24.67979 0.239567,0.29066 0.702442,0.86046 0.988459,1.1793 7.900971,9.243 19.340996,15.37188 31.428006,16.75478 5.297611,0.66089 10.674027,0.33322 15.91533,-0.6175 17.164171,-2.69909 34.3281,-5.39971 51.492422,-8.09783 3.10799,5.6768 6.93304,10.97506 11.5244,15.54719 10.68635,10.7642 25.22211,17.57033 40.31873,18.96955 13.6327,1.34227 27.64313,-1.78418 39.43265,-8.75345 12.74993,-7.43421 22.82226,-19.3179 28.07741,-33.10875 1.50933,-3.86549 2.5603,-7.89081 3.37337,-11.95532 64.7645,-10.19507 129.53003,-20.38361 194.29493,-30.57617 1.29568,-0.20787 2.8169,-0.49925 4.17852,-0.84553 11.77463,-2.83743 22.33415,-10.27364 29.0415,-20.34972 3.18371,-4.72832 5.52625,-10.01762 6.90888,-15.54694 0.077,-0.36311 0.27495,-1.13188 0.37687,-1.65715 1.88508,-8.88428 1.26633,-18.3133 -1.86905,-26.84285 -4.25693,-11.16839 -12.64417,-20.67929 -23.17947,-26.3198 -9.86239,-5.36765 -21.5399,-7.27182 -32.59983,-5.34426 -5.80977,0.95666 -11.99416,-1.36349 -15.77344,-5.8711 -2.35754,-2.72386 -3.70021,-6.20685 -4.09329,-9.76683 -4.32407,-27.60558 -8.60796,-55.21758 -12.95749,-82.8191 -0.5583,-3.21171 -1.1605,-6.25495 -1.86328,-9.37696 -0.16031,-0.68994 -0.39964,-1.68687 -0.59029,-2.49465 -6.31324,-26.11022 -18.79132,-50.69827 -36.12363,-71.22046 -17.94407,-21.338987 -41.09391,-38.265017 -66.88569,-48.859738 -1.08889,-0.4631 -2.14227,-0.865164 -3.30188,-1.325662 -5.55346,-2.167399 -11.22985,-4.004266 -16.96375,-5.630736 -1.20376,-7.890687 -3.70731,-15.599789 -7.59858,-22.580082 -7.22189,-13.124361 -19.07617,-23.600004 -32.95624,-29.2209071 -8.55749,-3.4871912 -17.84651,-5.13962 -27.0819,-4.8103393 z m 2.57227,31.8457034 c 9.91407,0.0078 19.72626,4.315187 26.4351,11.615676 2.23124,2.340116 3.94108,5.095945 5.77193,7.743699 -5.33765,0.04316 -10.67673,-0.207625 -16.01207,0.05989 -2.6321,0.11233 -5.49445,0.284792 -8.21165,0.55222 -4.68471,0.458933 -9.50057,1.156349 -14.03409,1.985547 -3.40986,0.602523 -6.78026,1.391543 -10.13007,2.263006 -3.16081,0.759687 -6.36792,1.624345 -9.35217,2.52681 -2.43866,0.720294 -4.83321,1.582264 -7.28253,2.260626 -1.05042,0.339957 -2.10083,0.679914 -3.15125,1.01987 1.0979,-3.686151 2.10141,-7.440387 3.97161,-10.830395 4.55518,-8.645663 12.76766,-15.266423 22.19574,-17.8489 3.18562,-0.892027 6.49258,-1.328376 9.79945,-1.348048 z m 22.17188,49.412109 c 8.92859,0.02321 17.86565,0.778155 26.63671,2.472656 1.30307,0.01478 2.5556,0.502804 3.83224,0.740029 21.79758,5.190627 42.33467,15.573197 59.42299,30.068407 17.93956,15.14778 32.06931,34.76259 40.73812,56.58413 4.28637,10.72739 7.21545,21.98016 8.85139,33.41199 4.25569,26.98361 8.47362,53.97367 12.75292,80.95326 1.95863,10.87919 7.89661,20.97549 16.45667,27.97007 5.42936,4.48635 11.87231,7.73759 18.70739,9.43813 0.32025,0.0756 1.03149,0.25478 1.51462,0.34927 6.10693,1.33166 12.46343,1.34633 18.60827,0.25506 6.9264,-0.91746 14.19335,2.04894 18.51323,7.53685 1.90388,2.3735 3.34983,5.1778 3.74868,8.22155 1.07181,6.4141 -1.45503,13.25907 -6.40856,17.46496 -2.97161,2.61048 -6.78361,4.14129 -10.69487,4.59114 -104.25747,16.39054 -208.51346,32.79097 -312.76992,49.18762 -19.202627,2.99745 -38.39918,6.0374 -57.605595,9.00831 -5.841289,0.76146 -11.934096,-1.4579 -15.980679,-5.72519 -3.59767,-3.69874 -5.646391,-8.93369 -5.317905,-14.09782 0.672623,-6.97317 5.229387,-13.39634 11.578022,-16.35255 2.286565,-1.14273 4.806876,-1.6628 7.319203,-2.01627 11.073434,-1.96761 21.334379,-8.06664 28.373643,-16.83529 7.466787,-9.16117 11.32041,-21.18507 10.478775,-32.98148 -0.309721,-4.25664 -1.194227,-8.44387 -1.793575,-12.66439 -4.118398,-26.269 -8.275014,-52.53259 -12.369512,-78.80496 -3.548775,-23.81613 -0.715088,-48.54103 8.119663,-70.93994 8.679098,-22.19493 23.19618,-42.06996 41.71445,-57.0724 6.46222,-5.22945 13.37693,-9.92202 20.683,-13.88619 1.71965,-0.70774 3.30323,-1.717017 4.99376,-2.496496 17.39063,-8.632986 36.6173,-13.611898 56.02913,-14.309542 1.28893,-0.04506 2.57814,-0.06012 3.86774,-0.07091 z M 203.10938,432.56641 c -5.78264,8.0463 -15.01372,13.49052 -24.85512,14.64928 -8.9897,1.13958 -18.37453,-1.28065 -25.6514,-6.692 -1.34743,-0.95843 -2.69488,-1.91683 -4.04231,-2.87525 19.15965,-3.00774 38.32039,-6.00858 57.48047,-9.01367 -0.97722,1.31054 -1.95443,2.62109 -2.93164,3.93164 z" />
	</g>
</g>
<g
   id="g8">
</g>
<g
   id="g10">
</g>
<g
   id="g12">
</g>
<g
   id="g14">
</g>
<g
   id="g16">
</g>
<g
   id="g18">
</g>
<g
   id="g20">
</g>
<g
   id="g22">
</g>
<g
   id="g24">
</g>
<g
   id="g26">
</g>
<g
   id="g28">
</g>
<g
   id="g30">
</g>
<g
   id="g32">
</g>
<g
   id="g34">
</g>
<g
   id="g36">
</g>
</svg>
