<?xml version="1.0" encoding="UTF-8" standalone="no"?>
<svg
   xmlns:dc="http://purl.org/dc/elements/1.1/"
   xmlns:cc="http://creativecommons.org/ns#"
   xmlns:rdf="http://www.w3.org/1999/02/22-rdf-syntax-ns#"
   xmlns:svg="http://www.w3.org/2000/svg"
   xmlns="http://www.w3.org/2000/svg"
   xmlns:sodipodi="http://sodipodi.sourceforge.net/DTD/sodipodi-0.dtd"
   xmlns:inkscape="http://www.inkscape.org/namespaces/inkscape"
   viewBox="-42 0 512 512.001"
   version="1.1"
   id="svg40"
   sodipodi:docname="user.svg"
   inkscape:version="1.0.1 (c497b03c, 2020-09-10)">
  <metadata
     id="metadata46">
    <rdf:RDF>
      <cc:Work
         rdf:about="">
        <dc:format>image/svg+xml</dc:format>
        <dc:type
           rdf:resource="http://purl.org/dc/dcmitype/StillImage" />
      </cc:Work>
    </rdf:RDF>
  </metadata>
  <defs
     id="defs44" />
  <sodipodi:namedview
     pagecolor="#ffffff"
     bordercolor="#666666"
     borderopacity="1"
     objecttolerance="10"
     gridtolerance="10"
     guidetolerance="10"
     inkscape:pageopacity="0"
     inkscape:pageshadow="2"
     inkscape:window-width="1440"
     inkscape:window-height="794"
     id="namedview42"
     showgrid="false"
     inkscape:zoom="1.1874977"
     inkscape:cx="33.683786"
     inkscape:cy="334.66241"
     inkscape:window-x="0"
     inkscape:window-y="23"
     inkscape:window-maximized="1"
     inkscape:current-layer="svg40" />
  <path
     id="path36"
     d="m 208.89453,6.0097656 c -16.42752,0.1426791 -32.89333,3.524197 -47.8125,10.4726564 -17.76067,8.286364 -33.09778,21.328649 -45.00458,36.8237 -10.14949,13.307781 -17.345693,28.893691 -20.609028,45.323854 -3.04266,15.009654 -3.182958,30.574604 -0.706774,45.675434 2.892139,17.24069 9.923262,33.77538 20.400322,47.77539 8.67652,11.67704 19.3617,21.86681 31.45076,29.96026 13.71651,9.08442 29.47338,15.06026 45.77076,17.32596 12.32922,1.74985 24.91879,1.66963 37.23167,-0.18208 17.02267,-2.60186 33.4341,-9.18851 47.45644,-19.19644 11.06607,-7.8531 20.82285,-17.53551 28.87196,-28.45404 8.74945,-11.933 15.16927,-25.59639 18.5238,-40.01973 3.74468,-16.03699 4.16581,-32.81763 1.48624,-49.05545 C 323.42494,87.198591 317.64997,72.485912 309.08369,59.602778 300.73938,47.004467 290.00732,36.028768 277.7977,27.146156 264.6055,17.644199 249.32538,11.030405 233.32593,8.0955714 225.278,6.5819493 217.08011,5.9322257 208.89453,6.0097656 Z m 1.45703,17.9941404 c 4.03515,-0.01105 8.22538,0.216914 12.13867,0.65625 13.28806,1.473156 26.3475,5.578674 37.806,12.523089 6.09263,3.633147 11.77303,7.942581 16.98893,12.746443 0.99408,0.925379 2.14903,2.024858 3.17382,3.050781 2.75386,2.749564 5.435,5.745377 7.83985,8.703125 3.14183,3.850131 6.00737,7.926522 8.51367,12.21875 0.65486,1.135029 1.41796,2.484191 2.06591,3.729623 3.53348,6.720446 6.24452,13.875519 8.01221,21.260611 0.33938,1.443562 0.70292,3.113412 0.97809,4.660392 2.54776,13.71015 2.35762,27.9084 -0.39289,41.57167 -3.02066,14.39581 -9.5507,28.0298 -18.85772,39.41951 -3.74715,4.67044 -7.88073,9.02804 -12.32708,13.03788 -0.36935,0.31697 -1.00172,0.88076 -1.47184,1.2923 -7.35986,6.39415 -15.57954,11.84984 -24.53721,15.73777 -2.18217,0.96645 -4.69896,1.95339 -6.9597,2.73165 -4.61268,1.59692 -9.35115,2.83091 -14.15821,3.67969 -1.53759,0.26647 -3.29739,0.5381 -4.93393,0.72749 -1.01643,0.11704 -2.10073,0.25167 -3.0014,0.33266 -2.04486,0.20634 -4.09591,0.34241 -6.14865,0.43985 -0.488,0.0186 -1.33314,0.0429 -1.95797,0.0636 -9.92475,0.21979 -19.91261,-0.78416 -29.51737,-3.3362 -4.94663,-1.32477 -9.89617,-3.12129 -14.47779,-5.21962 -5.49946,-2.51711 -10.7516,-5.57511 -15.65039,-9.12305 -1.10005,-0.78958 -2.3594,-1.76075 -3.49741,-2.65144 -0.98834,-0.78148 -2.14282,-1.7139 -3.19226,-2.61211 -8.62125,-7.32893 -16.16978,-15.95766 -22.11272,-25.59453 -6.5424,-10.76205 -10.854,-22.87313 -12.57065,-35.3509 -0.12839,-0.97138 -0.27475,-2.21266 -0.39951,-3.28906 -1.36927,-12.70888 -0.63577,-25.68593 2.50795,-38.089331 1.1265,-4.372173 2.65077,-8.794318 4.37398,-12.861845 3.66384,-8.690509 8.72724,-16.761599 14.80649,-23.963703 6.32845,-7.591124 13.67487,-14.333977 21.79312,-19.971843 0.40457,-0.267605 1.10441,-0.747952 1.62212,-1.097066 0.89652,-0.603125 2.09685,-1.35462 3.148,-1.987445 3.55267,-2.147989 7.40378,-4.109454 11.12441,-5.708458 6.95568,-2.988121 14.27464,-5.133176 21.74804,-6.345703 0.81522,-0.129661 1.90908,-0.294766 2.83716,-0.413297 3.53274,-0.461547 7.19149,-0.769287 10.66054,-0.884948 1.34132,-0.05053 2.68359,-0.07065 4.02574,-0.08262 z" />
  <path
     id="path38"
     d="m 111.64648,253.34375 c -12.169316,0.0468 -24.377902,2.27133 -35.616978,6.99354 -11.598456,4.79111 -22.17814,12.14515 -30.435455,21.62055 -9.981066,11.21006 -17.336391,24.52227 -22.996958,38.36141 -5.354698,13.32417 -8.761161,27.34159 -11.381523,41.43234 -2.6138655,14.11556 -4.2352656,28.41505 -4.7785892,42.7609 -0.3315756,8.36345 -0.5943145,16.74162 -0.2840585,25.10966 0.5934085,12.92593 3.648673,25.89051 9.9788597,37.24389 6.951073,12.43582 17.668126,22.66537 30.27979,29.25592 11.668733,6.19281 24.84951,9.09468 37.980369,9.72011 6.365574,0.26227 12.739805,0.12721 19.109233,0.15777 78.59629,-5e-4 157.1928,0.004 235.789,-0.0374 13.92018,-0.25384 27.97949,-2.96509 40.45491,-9.31 14.93849,-7.54766 27.37012,-20.17426 34.15687,-35.52361 5.36905,-12.01737 7.37553,-25.30123 7.24564,-38.39568 -0.0319,-10.57218 -0.41282,-21.14775 -1.25996,-31.68642 -1.18581,-14.09301 -3.4155,-28.09403 -6.53306,-41.8871 -3.16421,-13.79062 -7.46481,-27.39553 -13.84448,-40.0585 -5.98243,-11.92175 -13.42554,-23.27086 -23.13473,-32.50021 -9.95536,-9.50657 -22.45548,-16.15784 -35.66831,-19.86527 -8.65783,-2.41703 -17.67519,-3.45972 -26.65343,-3.3857 -4.27385,0.23632 -8.02496,2.54317 -11.64331,4.60982 -5.73155,3.49748 -11.29459,7.26368 -16.96475,10.85804 -6.12518,3.94906 -12.21085,8.02908 -18.86191,11.05854 -6.59679,3.10969 -13.47527,5.58601 -20.44888,7.70368 -1.74401,0.51143 -3.58133,1.08249 -5.43878,1.53877 -10.45762,2.63964 -21.29924,3.74962 -32.0749,3.28154 -0.96927,-0.0471 -2.38685,-0.13219 -3.34765,-0.19922 -13.00414,-0.94704 -25.70117,-4.48673 -37.76509,-9.32922 -5.7732,-2.31366 -11.43585,-4.94338 -16.72292,-8.2349 -8.49808,-5.30439 -16.78347,-10.94483 -25.31858,-16.19138 -4.19227,-2.54717 -8.71403,-5.35805 -13.82037,-5.10192 z m 204.93164,17.96875 c 7.14688,0.22511 14.29677,1.2082 21.14524,3.30613 10.87517,3.28295 20.97585,9.27621 28.79188,17.55201 8.98078,9.58333 15.56272,21.16319 20.64012,33.21269 0.89201,2.10902 1.79933,4.45073 2.59424,6.69056 1.99888,5.5721 3.64486,11.26521 5.08243,17.00619 0.22724,0.9721 0.53832,2.21041 0.76544,3.20233 2.17223,9.49746 3.9086,19.09763 5.14276,28.76251 0.29363,2.39002 0.58509,4.95207 0.83008,7.41406 0.6054,6.11564 1.02077,12.385 1.25026,18.57806 0.23722,8.07522 0.57902,16.29708 0.0388,24.41865 -0.47399,5.97562 -1.59021,11.91828 -3.54099,17.59314 -0.32661,0.93995 -0.76322,2.12739 -1.18571,3.14322 -4.57874,11.37441 -13.28017,20.89573 -23.88538,26.96454 -7.4982,4.37501 -15.97225,6.87107 -24.5461,8.00552 -0.48158,0.0588 -1.31817,0.16594 -1.93725,0.23314 -6.00305,0.68121 -12.05213,0.66341 -18.08423,0.60081 -80.583,-0.002 -161.1663,0.004 -241.749107,-0.0395 -3.931215,-0.0795 -7.859021,-0.38856 -11.748942,-0.96632 -0.574952,-0.0954 -1.21807,-0.18693 -1.84505,-0.3017 -10.128525,-1.72898 -19.989867,-5.62545 -28.110447,-11.99515 -7.178286,-5.58957 -13.03253,-12.91927 -16.692941,-21.26174 -0.135544,-0.32104 -0.462793,-1.06383 -0.590518,-1.40994 -0.875692,-2.20432 -1.592776,-4.29164 -2.231442,-6.58622 -2.454609,-8.81805 -2.927426,-18.04465 -2.657798,-27.15257 0.09065,-8.00413 0.40324,-15.96443 1.014914,-23.9665 0.181662,-2.22255 0.393571,-4.70087 0.619859,-6.90908 1.144843,-11.31896 3.051569,-22.556 5.525193,-33.65791 2.659591,-11.64901 6.1646,-23.31518 11.35516,-34.18564 0.813738,-1.73324 1.746304,-3.59571 2.591585,-5.19464 5.213868,-9.78117 11.569379,-19.14165 19.964032,-26.47853 5.16226,-4.55183 11.149609,-8.10863 17.473468,-10.79295 1.10727,-0.46916 2.455555,-0.99911 3.680469,-1.43141 4.121254,-1.47763 8.433746,-2.57727 12.682501,-3.27845 4.232014,-0.7128 8.525864,-0.9969 12.812814,-1.07139 7.57519,4.15992 14.60622,9.21014 21.93615,13.77155 6.16336,3.99989 12.36715,8.00017 19.07934,11.03316 8.22749,3.82906 16.78984,6.922 25.50085,9.45226 16.28703,4.57553 33.46863,6.10113 50.27938,4.0512 15.90664,-1.91937 31.33767,-6.86592 45.86139,-13.54141 5.98852,-2.76352 11.67732,-6.16734 17.15553,-9.79367 7.22412,-4.60848 14.33275,-9.40447 21.68375,-13.80965 1.02079,-0.55465 2.10601,-1.20383 3.30829,-1.16735 z" />
</svg>
